<?xml version="1.0" ?><svg style="enable-background:new 0 0 48 48;" version="1.1" viewBox="0 0 48 48" xml:space="preserve" xmlns="http://www.w3.org/2000/svg" xmlns:xlink="http://www.w3.org/1999/xlink"><g id="Padding__x26__Artboard"/><g id="Icons"><g><path d="M23.99976,7.81445c-5.54492,0-10.05615,4.51074-10.05615,10.05566    c0,1.69824,0.43066,3.37109,1.24512,4.83887c0.00879,0.02344,0.02051,0.04492,0.03467,0.06641l7.76318,11.62988    c0.22607,0.33887,0.60449,0.54199,1.01221,0.54199c0.40723,0,0.78564-0.20312,1.01172-0.54199l7.76318-11.62988    c0.00928-0.01367,0.01758-0.02832,0.0249-0.04395c0.82275-1.47363,1.25781-3.15332,1.25781-4.86133    C34.0564,12.3252,29.54517,7.81445,23.99976,7.81445z M18.51489,19.2666c-0.19189-3.02441,2.11328-5.6416,5.13818-5.83301    c1.46875-0.08496,2.87891,0.3916,3.97998,1.36133c1.10156,0.9707,1.75928,2.31152,1.85156,3.77637    c0.19189,3.02441-2.11279,5.64062-5.1377,5.83301c-0.11768,0.00684-0.23486,0.01074-0.35107,0.01074    C21.1228,24.41504,18.69897,22.17285,18.51489,19.2666z M25.24048,10.26855c2.12646,0.08887,4.09082,1.20996,5.25439,2.99902    c0.10547,0.16113,0.05957,0.37793-0.10254,0.4834c-0.05908,0.03906-0.125,0.05664-0.19043,0.05664    c-0.11475,0-0.22656-0.05566-0.29395-0.15918c-1.04053-1.59863-2.79639-2.60059-4.69678-2.68066    c-0.19336-0.00781-0.34326-0.1709-0.33496-0.36426C24.88403,10.40918,25.06812,10.25391,25.24048,10.26855z M31.20386,17.46582    c-0.00537,0-0.01025,0-0.01514,0c-0.19287-0.00781-0.34326-0.1709-0.33496-0.36426    c0.02588-0.63184-0.04785-1.25781-0.21924-1.85938c-0.05322-0.18555,0.0542-0.37891,0.24023-0.43262    c0.18555-0.05371,0.37939,0.05469,0.43262,0.24121c0.19238,0.67285,0.2749,1.37305,0.24561,2.08008    C31.54517,17.31934,31.39038,17.46582,31.20386,17.46582z" style="fill:#000000;"/><path d="M24.00976,37.77246c-1.2334,0-3.32031,0.25391-3.32031,1.20605    c0,0.95312,2.08691,1.20703,3.32031,1.20703c1.23291,0,3.31982-0.25391,3.31982-1.20703    C27.32959,38.02637,25.24267,37.77246,24.00976,37.77246z" style="fill:#000000;"/></g></g></svg>